<?xml version="1.0" encoding="UTF-8" standalone="no"?>
<!-- Created with Inkscape (http://www.inkscape.org/) -->

<svg
   version="1.1"
   id="svg1"
   width="300"
   height="300"
   viewBox="-10 322 320 240"
   sodipodi:docname="BloomBox-logo-first.svg"
   xmlns:inkscape="http://www.inkscape.org/namespaces/inkscape"
   xmlns:sodipodi="http://sodipodi.sourceforge.net/DTD/sodipodi-0.dtd"
   xmlns="http://www.w3.org/2000/svg"
   xmlns:svg="http://www.w3.org/2000/svg">
  <defs
     id="defs1" />
  <sodipodi:namedview
     id="namedview1"
     pagecolor="#ffffff"
     bordercolor="#000000"
     borderopacity="0.25"
     inkscape:showpageshadow="2"
     inkscape:pageopacity="0.0"
     inkscape:pagecheckerboard="0"
     inkscape:deskcolor="#d1d1d1">
    <inkscape:page
       x="0"
       y="0"
       inkscape:label="1"
       id="page1"
       width="300"
       height="300"
       margin="0"
       bleed="0" />
  </sodipodi:namedview>
  <g
     id="g1"
     inkscape:groupmode="layer"
     inkscape:label="1">
    <path
       id="path2"
       d="m 73.6992,2648.34 c 16.8828,78.69 39.5628,147.2 68.3128,222.3 5.011,12.95 10.168,25.95 14.793,39.04 35.468,101.3 83.418,188.38 153.937,270.1 15.254,18.11 31.215,35.49 47.578,52.61 108.164,110.11 209.243,179.42 349.907,244.32 148.933,62.86 273.222,90.08 434.633,92.73 34.35,-0.02 67.12,-1.34 101.29,-4.69 121.95,-10.79 220.88,-38.34 334.86,-84.43 142.78,-63.26 242.72,-132.33 354.11,-242.2 107.66,-112.6 174.05,-213.6 234.95,-357.17 49.2,-125.57 71.39,-228.34 78.86,-363.05 2.02,-29.89 5.02,-125.97 10.62,-24.97 3.71,142.62 -22.31,261.58 -69.7,396.38 -58.86,148.06 -126.04,251.78 -234.7,368.83 -112.74,114.42 -215.15,185.1 -361.7,251.57 -154.61,64.71 -280.79,90.06 -448.59,92.89 -167.676,-2.28 -293.809,-28.06 -448.895,-92.17 C 547.086,3444.63 444.684,3373.75 330.73,3259.98 275.891,3202.78 233.691,3149.69 190.285,3083.36 148.223,3019.13 119.363,2964.79 87.4805,2893.7 70.7891,2854.33 57.0859,2816.59 44.4688,2775.7 18.9922,2689.63 2.76172,2595.51 0.300781,2505.77 c 0.117188,-8.58 4.457029,-78.25 25.539019,-52.37 29.3399,44.9 39.0157,142.25 47.8594,194.94"
       style="fill:#6b6f4a;fill-opacity:1;fill-rule:nonzero;stroke:none"
       transform="matrix(0.13333333,0,0,-0.13333333,0,765.33333)" />
    <path
       id="path3"
       d="m 2213.6,2167.87 c -16.42,-79.51 -38.91,-148.83 -68.52,-224.41 -5.19,-13.03 -10.53,-26.02 -15.58,-39.1 -38.37,-99.79 -89.31,-187.42 -159.67,-268.47 -15.54,-18.12 -31.4,-35.32 -48,-52.5 -108.93,-109.72 -210.51,-178.68 -351.69,-243.07 -149.28,-62.23 -273.55,-88.93 -435.02,-91.34 -34.33,0.05 -67.1,1.4 -101.26,4.63 -121.922,10.79 -220.809,38.23 -334.84,84.16 -142.875,63.07 -242.977,131.97 -354.661,241.57 -108.093,112.44 -174.871,213.34 -236.437,356.82 -49.8673,125.68 -72.6173,228.63 -80.8868,363.64 -2.1172,31.85 -5.0118,119.99 -7.8946,25.17 C 18.1172,2182.12 45,2064.87 93.9336,1930.25 153.887,1783.61 221.453,1680.92 330.191,1565.17 c 112.539,-112.9 214.407,-182.63 360.036,-248.19 153.429,-63.72 278.546,-88.69 444.893,-91.46 166.21,2.28 291.24,27.72 445.11,90.96 145.83,64.96 247.63,134.99 361.11,247.4 54.7,56.59 96.83,109.11 140.27,174.77 41.81,63.6 70.54,118.06 102.04,188.49 16.53,39.15 30.09,76.64 42.57,117.29 25.68,86.64 41.27,177.76 44.44,268.1 0.01,3.68 -2.11,78.98 -17.65,52.01 -20.46,-44.19 -31.05,-147.22 -39.41,-196.67"
       style="fill:#6b6f4a;fill-opacity:1;fill-rule:nonzero;stroke:none"
       transform="matrix(0.13333333,0,0,-0.13333333,0,765.33333)" />
    <path
       id="path4"
       d="m 1131.77,2738.77 c 27.68,78.74 40.6,167.23 44.78,250.46 1,84.67 -15.99,146.78 -60.22,218.83 -20.27,30.37 -38.88,53.4 -66.06,77.49 -60.008,3.81 -100.27,-137.04 -114.446,-179.05 -13.25,-44.15 -14.195,-79.02 -7.582,-124.33 7.086,-40.93 17.805,-73.23 34.524,-111.04 23.238,-49.06 38.914,-69.28 65.814,-111.82 31.59,-0.4 27.41,-6.08 37.57,12.9 12.36,24.39 18.97,51.23 24.6,77.84 2.41,71.54 -26.12,163.01 -22.56,143.75 0.96,-55.38 20.55,-58.19 4.6,-140.16 -1.11,-4.28 -22.63,-81.87 -34.56,-78.28 -3.13,6.86 -33.08,79.41 -46.222,109.25 -13.75,35.24 -23.133,65.81 -29.168,103.31 -0.402,1.4 -0.684,4.86 -0.895,6.48 -4.375,37.05 -3.207,65.37 7.582,101.42 10.309,30.73 79.153,151.96 79.713,159.89 -39.35,4.9 -0.43,-8.33 38.53,-66.18 41,-65.46 56.67,-121.88 56.38,-199.3 -5.15,-88.98 -13.19,-181.52 -50.71,-263.77 -0.22,-0.44 -0.44,-0.87 -0.66,-1.31 79.68,-83.88 304.61,164.48 349.11,228.13 28.21,46.8 48.02,87.37 62.07,140.17 8,33.85 17,101.06 -0.74,132.76 -28.08,18.6 -57.86,8.94 -93.72,1.55 -55.77,-13.76 -96.83,-32.61 -137.86,-73.89 -24.32,-26.02 -44.01,-50.8 -63.61,-80.62 -3.37,-4.24 -16.05,-46.74 9.01,50.39 4.5,16.72 9.43,30.65 18.03,45.72 7.81,12.3 25.18,26.84 29.52,30.76 0.92,-0.97 1.95,-1.79 3.07,-2.54 1.73,-1.11 3.23,-1.73 5.24,-2.18 1.95,-0.37 3.47,-0.39 5.43,-0.07 1.8,0.35 3.12,0.85 4.68,1.83 1.38,0.91 2.32,1.78 3.31,3.09 0.9,1.28 1.43,2.34 1.86,3.84 0.38,1.45 0.47,2.66 0.33,4.16 -0.17,1.44 -0.49,2.52 -1.15,3.81 -0.19,0.65 -1.58,2.28 -2.11,2.78 0,-0.01 -0.15,0.12 -0.18,0.16 -0.71,0.93 -2.18,1.24 -3.16,1.73 -4.78,1.07 -4.09,-0.09 -1.06,-2.25 -0.01,0 0.07,-0.04 0.09,-0.04 0.78,-0.23 1.41,-1.1 2.01,-1.56 0.59,-0.45 0.95,-1.59 1.28,-2.14 0.4,-0.65 0.29,-1.85 0.4,-2.49 0.12,-0.74 -0.42,-1.79 -0.56,-2.42 -0.15,-0.68 -1.02,-1.45 -1.37,-1.96 -0.39,-0.58 -1.45,-0.98 -1.96,-1.33 -0.62,-0.43 -1.79,-0.4 -2.41,-0.55 -0.72,-0.17 -1.84,0.29 -2.48,0.37 -0.72,0.1 -1.61,0.93 -2.17,1.24 -0.68,0.36 -1.25,1.47 -1.71,1.97 -0.35,0.38 -0.87,1.91 -1,2.45 0,0 -0.04,0.22 -0.05,0.23 -0.38,0.8 -0.58,2.68 -0.89,3.5 -0.29,1.76 -0.32,3.17 -0.15,4.95 0.29,2.56 0.9,4.53 1.98,6.88 0.17,0.73 1.77,3.3 2.24,4 1.04,1.67 2.36,3.15 3.85,4.43 1.93,1.68 -3.09,0.7 -5.52,-0.23 -1.18,-0.55 -2.18,-1.12 -3.27,-1.83 -2.68,-1.84 -4.44,-3.59 -6.26,-6.27 -1.6,-2.51 -2.5,-4.69 -3.08,-7.61 -0.46,-2.8 -0.42,-5.05 0.2,-7.82 0.64,-2.54 1.5,-4.35 3.09,-6.43 0.09,-0.17 0.76,-0.9 0.94,-1.09 -15.55,-4.5 -26.06,-14.16 -36.31,-26.6 -11.47,-14.75 -18.44,-28.81 -25.24,-46.13 -6.56,-19.27 -15.99,-53.61 -15.32,-74.18 -0.05,-0.53 0.45,-2.75 0.57,-3.39 0.63,-2.45 1.38,-4.03 2.94,-6.06 1.76,-2.07 3.49,-3.25 6.04,-4.18 2.73,-0.84 5,-0.92 7.76,-0.21 1.24,-0.03 4.64,2.18 5.71,3.09 0.12,0.1 0.69,0.65 0.76,0.69 2.39,1.3 9.04,11.91 11.39,14.24 22.11,27.47 43.83,51.77 68.32,77.29 8.91,10.77 28.81,25.18 40.86,32.64 26.93,15.86 53.47,24.42 83.9,31.34 24.36,4.8 46.31,7.45 71.09,7.43 -4.88,3.25 -0.79,-112.91 -71.27,-237 -71.23,-102.28 -170.24,-180.14 -283.48,-230.93 z m 25.8,509.41 c 0,0.01 0.07,-0.04 0.09,-0.04 0.79,-0.22 1.41,-1.1 2.02,-1.56 0.58,-0.45 0.95,-1.58 1.28,-2.14 0.39,-0.65 0.29,-1.85 0.39,-2.49 0.13,-0.74 -0.42,-1.79 -0.56,-2.42 -0.15,-0.68 -1.02,-1.46 -1.36,-1.96 -0.4,-0.59 -1.46,-0.98 -1.97,-1.34 -0.62,-0.43 -1.78,-0.39 -2.41,-0.54 -0.72,-0.17 -1.84,0.29 -2.48,0.38 -0.72,0.09 -1.61,0.92 -2.17,1.22 -0.68,0.37 -1.25,1.48 -1.7,1.98 -0.36,0.39 -0.88,1.91 -1.01,2.45 0,0 -0.04,0.22 -0.05,0.23 -0.38,0.8 -0.58,2.68 -0.89,3.5 -0.29,1.76 -0.32,3.18 -0.16,4.95 0.3,2.57 0.91,4.52 1.98,6.88 0.18,0.72 1.78,3.3 2.25,4 1.05,1.67 2.36,3.15 3.86,4.43 1.93,1.68 -3.09,0.7 -5.52,-0.23 -1.16,-0.53 -2.23,-1.12 -3.28,-1.83 -2.67,-1.83 -4.45,-3.6 -6.26,-6.27 -1.61,-2.52 -2.5,-4.67 -3.08,-7.61 -0.47,-2.81 -0.41,-5.05 0.21,-7.82 0.63,-2.53 1.5,-4.36 3.09,-6.43 0.08,-0.17 0.77,-0.92 0.94,-1.1 1.14,-1.29 2.16,-2.17 3.6,-3.15 1.75,-1.11 3.22,-1.71 5.24,-2.18 1.97,-0.37 3.45,-0.38 5.43,-0.06 1.79,0.35 3.14,0.85 4.68,1.83 1.38,0.9 2.33,1.79 3.32,3.1 0.9,1.27 1.42,2.32 1.86,3.83 0.37,1.45 0.47,2.66 0.32,4.16 -0.16,1.43 -0.5,2.53 -1.15,3.81 -0.19,0.66 -1.58,2.28 -2.11,2.78 0.01,-0.01 -0.15,0.12 -0.17,0.16 -0.73,0.93 -2.19,1.24 -3.17,1.73 -4.78,1.07 -4.09,-0.09 -1.06,-2.25 z m 31.16,-149.72 c 2.99,12.03 3.92,36.22 4.38,48.48 0.35,16.51 -0.04,33.19 -4.18,49.26 -3.36,13.73 -18.63,18.75 -31.29,19.06 -2.93,-0.19 -5.87,-0.56 -8.75,-1.18 -2.73,-0.5 -2.07,-1.31 -0.15,-2.47 9.08,-4.8 17.45,-18.1 22.33,-26.86 5.39,-11.04 8.53,-25.54 10.59,-37.5 1.28,-14.48 1.82,-28.52 1.54,-43.05 -0.08,-3.31 0.68,-10.92 5.53,-5.74 z m 141.78,201.09 c 0.01,0.03 -0.6,1.32 -0.66,1.45 -6.32,12.7 -14.41,23.95 -23.8,34.54 -10.39,11.16 -20.19,19.56 -34.86,24.44 -9.22,2.55 -17.24,3.66 -26.75,3.28 -3.58,-0.03 -7.01,-0.25 -10.58,-0.61 -14.16,-1.65 -25.55,-4.94 -38.86,-9.96 -3.54,-1.36 -7.04,-2.78 -10.54,-4.24 -13.66,-6.7 -59.96,-47.23 -57.43,-57.44 5.79,-0.36 17.74,1.54 22.77,4.24 5.89,3.17 10.75,6.17 15.5,10.96 13,9.29 24.7,16.22 39.39,22.77 10.8,4.47 20.18,7.45 31.79,8.9 3.04,0.78 12.34,0.55 15.84,-0.05 3.84,-0.65 7.07,-1.48 10.75,-2.83 8.97,-3.8 15.86,-11.07 22.07,-18.36 8.29,-10.3 14.6,-20.45 20.86,-32.07 5.44,-8.44 12.55,-24.07 16.05,-33.87 11.29,-34.55 23.65,14.19 8.46,48.85"
       style="fill:#cc3366;fill-opacity:1;fill-rule:nonzero;stroke:none"
       transform="matrix(0.13333333,0,0,-0.13333333,0,765.33333)" />
    <path
       id="path5"
       d="m 1119.64,1423.47 c -27.05,-2.58 -49.91,4.83 -68.59,22.22 -18.68,17.39 -28.02,38.97 -28.02,64.73 0,7.73 0.65,13.53 1.93,17.39 3.86,20.61 13.53,43.8 28.99,69.56 16.74,24.47 44.44,58.61 83.08,102.41 108.21,113.36 217.06,209.97 326.55,289.84 7.73,3.86 18.04,10.95 30.92,21.25 20.61,15.46 30.91,30.27 30.91,44.44 0,12.89 -4.5,26.41 -13.52,40.58 -19.32,27.05 -45.73,42.51 -79.23,46.37 -56.67,3.87 -111.42,-7.08 -164.23,-32.85 l -44.45,-25.11 c -2.57,-1.29 -7.41,-3.87 -14.49,-7.73 -7.08,-3.87 -13.2,-5.8 -18.36,-5.8 -6.43,0 -12.88,2.58 -19.32,7.73 -3.86,3.86 -5.79,8.37 -5.79,13.52 0,9.02 9.02,22.55 27.05,40.58 27.05,23.19 41.22,35.43 42.51,36.72 l 30.91,27.05 c 32.21,27.05 64.41,55.39 96.62,85.02 59.25,54.1 112.07,117.22 158.44,189.36 39.93,59.25 68.91,124.3 86.95,195.15 2.57,15.46 3.86,26.41 3.86,32.85 0,14.17 -5.15,24.47 -15.45,30.92 -6.45,3.86 -12.89,5.79 -19.32,5.79 -6.45,0 -13.85,-2.25 -22.23,-6.76 -8.37,-4.51 -14.49,-7.41 -18.35,-8.7 -32.21,-15.45 -70.85,-44.44 -115.94,-86.95 -45.08,-45.08 -90.81,-103.05 -137.19,-173.9 -43.79,-63.12 -94.68,-148.13 -152.65,-255.05 -85.01,-159.74 -152.644,-297.57 -202.882,-413.51 -2.575,-5.15 -7.407,-16.42 -14.489,-33.81 -7.089,-17.39 -15.781,-31.88 -26.086,-43.48 -6.441,-10.3 -14.812,-15.45 -25.121,-15.45 -7.726,0 -14.488,3.22 -20.285,9.66 -5.797,6.44 -9.344,13.53 -10.629,21.25 -2.578,25.77 -3.867,45.09 -3.867,57.97 0,1.79 0.008,3.57 0.024,5.34 -13.536,-3.97 -37.747,17.1 -76.84,72.75 -238.207,339.12 -339.078,466.22 -187.336,683.07 151.738,216.85 74.726,217.78 74.726,217.78 0,0 153.828,-35.01 96.516,-168.07 -36.699,-85.21 77.894,-500.85 102.492,-699.69 24.137,194.54 67.961,380.98 131.473,559.31 7.73,21.9 23.832,70.85 48.304,146.85 2.58,11.59 7.73,28.98 15.46,52.17 3.86,9.02 8.37,22.55 13.53,40.58 2.57,7.73 6.76,13.52 12.56,17.39 5.79,3.86 11.27,4.51 16.42,1.93 12.88,-5.15 18.03,-15.46 15.46,-30.91 -5.15,-28.34 -10.3,-48.96 -15.46,-61.84 l -63.77,-199.02 c -65.688,-186.78 -108.844,-381.29 -129.453,-583.54 12.878,3.87 20.929,10.31 24.152,19.33 3.219,9.02 5.476,14.81 6.762,17.39 43.8,95.32 102.409,212.54 175.839,351.66 50.23,95.33 103.05,184.21 158.44,266.66 47.66,70.84 96.61,130.74 146.85,179.69 34.78,34.78 73.43,63.77 115.94,86.95 27.05,15.46 50.88,23.19 71.49,23.19 20.61,0 37.68,-5.15 51.2,-15.46 13.53,-10.3 22.23,-25.11 26.09,-44.44 2.57,-12.88 3.87,-22.54 3.87,-28.98 0,-12.88 -1.94,-26.41 -5.8,-40.58 -15.46,-66.98 -40.58,-129.46 -75.36,-187.43 -43.8,-70.85 -95.97,-136.54 -156.51,-197.08 l -50.24,-48.31 c -1.29,-2.58 -4.51,-6.12 -9.66,-10.63 -5.16,-4.51 -6.44,-9.34 -3.87,-14.49 2.58,-5.16 6.76,-7.41 12.56,-6.76 5.8,0.64 9.34,0.96 10.63,0.96 9.02,-1.29 20.61,-1.93 34.78,-1.93 14.17,0 25.76,-0.64 34.78,-1.93 38.65,-3.87 70.21,-23.19 94.68,-57.97 l 17.39,-32.85 c 6.44,-10.3 10.31,-16.75 11.6,-19.32 l 3.86,-46.37 c 0,-16.75 -3.86,-35.43 -11.59,-56.04 -54.11,-166.17 -142.35,-312.38 -264.72,-438.62 -25.76,-29.63 -61.84,-58.61 -108.21,-86.95 -24.47,-14.17 -50.23,-23.19 -77.29,-27.05 z m -7.73,52.17 c 12.89,0 30.92,5.15 54.11,15.46 30.91,18.03 64.4,43.79 100.47,77.29 47.67,46.37 89.85,98.22 126.56,155.54 36.72,57.33 71.82,122.06 105.31,194.19 0,1.29 0.97,4.51 2.9,9.66 1.94,5.16 0.97,10.31 -2.9,15.46 h -3.86 c -6.45,0 -12.24,-2.25 -17.39,-6.76 -5.16,-4.51 -9.02,-7.41 -11.59,-8.7 -118.52,-87.59 -224.79,-186.14 -318.82,-295.63 -7.74,-7.73 -25.77,-30.92 -54.11,-69.56 -9.02,-12.88 -14.81,-28.34 -17.39,-46.38 v -5.79 c 0,-10.31 3.54,-18.68 10.63,-25.12 7.08,-6.44 15.78,-9.66 26.08,-9.66"
       style="fill:#6b6f4a;fill-opacity:1;fill-rule:nonzero;stroke:none"
       transform="matrix(0.13333333,0,0,-0.13333333,0,765.33333)" />
  </g>
</svg>

